<svg xmlns="http://www.w3.org/2000/svg" width="1200" height="760" viewBox="0 0 1200 760" role="img" aria-labelledby="title desc">
  <title id="title">Pitcrew's eight-step return path</title>
  <desc id="desc">A provably owned Autoloop pull request with trusted feedback, failed exact-head checks, or a revision-eligible conflict enters eight steps: diagnose, prepare, implement, orchestrator pass, independent review, gate, publish, and finalize. Pitcrew returns the same ready pull request to the human under the default manual policy.</desc>
  <defs>
    <marker id="arrow" markerWidth="9" markerHeight="9" refX="7.5" refY="4.5" orient="auto" markerUnits="strokeWidth">
      <path d="M0 0L9 4.5L0 9Z" fill="#64748b"/>
    </marker>
    <style>
      .bg { fill: #ffffff; }
      .card { fill: #fff7f8; stroke: #fecdd3; stroke-width: 1.5; }
      .trigger { fill: #f8fafc; stroke: #cbd5e1; stroke-width: 1.25; }
      .outcome { fill: #fffbeb; stroke: #f59e0b; stroke-width: 1.5; }
      .heading { fill: #0f172a; font: 750 25px Inter, ui-sans-serif, system-ui, sans-serif; }
      .subtitle { fill: #475569; font: 450 14px Inter, ui-sans-serif, system-ui, sans-serif; }
      .label { fill: #be123c; font: 750 12px Inter, ui-sans-serif, system-ui, sans-serif; letter-spacing: 0.7px; }
      .trigger-title { fill: #334155; font: 700 14px Inter, ui-sans-serif, system-ui, sans-serif; }
      .trigger-copy { fill: #475569; font: 450 12px Inter, ui-sans-serif, system-ui, sans-serif; }
      .step { fill: #be123c; font: 750 13px Inter, ui-sans-serif, system-ui, sans-serif; letter-spacing: 0.35px; }
      .step-small { fill: #be123c; font: 750 12px Inter, ui-sans-serif, system-ui, sans-serif; letter-spacing: 0.2px; }
      .card-title { fill: #0f172a; font: 700 18px Inter, ui-sans-serif, system-ui, sans-serif; }
      .copy { fill: #475569; font: 450 13px Inter, ui-sans-serif, system-ui, sans-serif; }
      .flow { fill: none; stroke: #64748b; stroke-width: 2.25; marker-end: url(#arrow); }
      @media (prefers-color-scheme: dark) {
        .bg { fill: #0d1117; }
        .card { fill: #25171b; stroke: #6e2438; }
        .trigger { fill: #161b22; stroke: #30363d; }
        .outcome { fill: #272115; stroke: #d29922; }
        .heading, .card-title { fill: #f0f6fc; }
        .subtitle, .trigger-copy, .copy { fill: #b1bac4; }
        .trigger-title { fill: #d0d7de; }
        .label, .step, .step-small { fill: #ff7b9c; }
      }
    </style>
  </defs>

  <rect class="bg" width="1200" height="760"/>
  <text x="30" y="37" class="heading">PITCREW · THE SAME PR RETURNS READY</text>
  <text x="30" y="65" class="subtitle">Only a same-repository PR with matching branch, issue, claim, and lifecycle evidence enters repair.</text>

  <text x="30" y="102" class="label">TRUSTED TRIGGERS</text>
  <g transform="translate(30 118)">
    <rect class="trigger" width="350" height="70" rx="8"/>
    <text x="16" y="28" class="trigger-title">Actionable human feedback</text>
    <text x="16" y="50" class="trigger-copy">Trusted unresolved thread or change request.</text>
  </g>
  <g transform="translate(410 118)">
    <rect class="trigger" width="350" height="70" rx="8"/>
    <text x="16" y="28" class="trigger-title">Exact-head check failure</text>
    <text x="16" y="50" class="trigger-copy">Failed, errored, or cancelled current check.</text>
  </g>
  <g transform="translate(790 118)">
    <rect class="trigger" width="350" height="70" rx="8"/>
    <text x="16" y="28" class="trigger-title">Revision-eligible base state</text>
    <text x="16" y="50" class="trigger-copy">A real conflict, or behind before evidence binds.</text>
  </g>

  <path class="flow" d="M600 188V205H160V220"/>
  <path class="flow" d="M290 290H320"/>
  <path class="flow" d="M580 290H610"/>
  <path class="flow" d="M870 290H900"/>
  <path class="flow" d="M1030 360V410"/>
  <path class="flow" d="M900 480H870"/>
  <path class="flow" d="M610 480H580"/>
  <path class="flow" d="M320 480H290"/>
  <path class="flow" d="M160 550V590H600V625"/>

  <g transform="translate(30 220)">
    <rect class="card" width="260" height="140" rx="9"/>
    <text x="16" y="29" class="step">1 DIAGNOSE</text>
    <text x="16" y="59" class="card-title">Freeze the scope</text>
    <text x="16" y="88" class="copy">Snapshot the whole PR;</text>
    <text x="16" y="110" class="copy">post the exact revision plan.</text>
  </g>

  <g transform="translate(320 220)">
    <rect class="card" width="260" height="140" rx="9"/>
    <text x="16" y="29" class="step">2 PREPARE</text>
    <text x="16" y="59" class="card-title">Bind and check out</text>
    <text x="16" y="88" class="copy">Bind the exact head;</text>
    <text x="16" y="110" class="copy">fetch and rebase if needed.</text>
  </g>

  <g transform="translate(610 220)">
    <rect class="card" width="260" height="140" rx="9"/>
    <text x="16" y="29" class="step">3 IMPLEMENT</text>
    <text x="16" y="59" class="card-title">Fresh implementer</text>
    <text x="16" y="88" class="copy">Apply only the frozen</text>
    <text x="16" y="110" class="copy">full-lane revision scope.</text>
  </g>

  <g transform="translate(900 220)">
    <rect class="card" width="260" height="140" rx="9"/>
    <text x="16" y="29" class="step-small">4 ORCHESTRATOR PASS</text>
    <text x="16" y="59" class="card-title">Inspect and simplify</text>
    <text x="16" y="88" class="copy">Run the checklist and</text>
    <text x="16" y="110" class="copy">focused simplification.</text>
  </g>

  <g transform="translate(900 410)">
    <rect class="card" width="260" height="140" rx="9"/>
    <text x="16" y="29" class="step-small">5 INDEPENDENT REVIEW</text>
    <text x="16" y="59" class="card-title">Fresh reviewers</text>
    <text x="16" y="88" class="copy">Review full revision, then</text>
    <text x="16" y="110" class="copy">deltas and open rebuts.</text>
  </g>

  <g transform="translate(610 410)">
    <rect class="card" width="260" height="140" rx="9"/>
    <text x="16" y="29" class="step">6 GATE</text>
    <text x="16" y="59" class="card-title">Full objective gate</text>
    <text x="16" y="88" class="copy">Require a clean tree;</text>
    <text x="16" y="110" class="copy">bind the new gated OID.</text>
  </g>

  <g transform="translate(320 410)">
    <rect class="card" width="260" height="140" rx="9"/>
    <text x="16" y="29" class="step">7 PUBLISH</text>
    <text x="16" y="59" class="card-title">Verify remote head</text>
    <text x="16" y="88" class="copy">Push safely, bind the OID,</text>
    <text x="16" y="110" class="copy">resolve addressed threads.</text>
  </g>

  <g transform="translate(30 410)">
    <rect class="card" width="260" height="140" rx="9"/>
    <text x="16" y="29" class="step">8 FINALIZE</text>
    <text x="16" y="59" class="card-title">Bind final evidence</text>
    <text x="16" y="88" class="copy">Require exact-head checks;</text>
    <text x="16" y="110" class="copy">mark the same PR ready.</text>
  </g>

  <g transform="translate(320 625)">
    <rect class="outcome" width="560" height="90" rx="9"/>
    <text x="280" y="32" text-anchor="middle" class="step" fill="#b45309">OUTCOME</text>
    <text x="280" y="59" text-anchor="middle" class="card-title">Same PR · ready again · returned to the human</text>
    <text x="280" y="79" text-anchor="middle" class="copy">Manual policy stops here; Pitcrew does not merge.</text>
  </g>
</svg>
